<mxfile host="Electron" modified="2024-09-26T07:10:50.366Z" agent="Mozilla/5.0 (Windows NT 10.0; Win64; x64) AppleWebKit/537.36 (KHTML, like Gecko) draw.io/21.7.5 Chrome/114.0.5735.289 Electron/25.8.1 Safari/537.36" etag="-UO_D032LADfe1V4Medj" version="21.7.5" type="device">
  <diagram name="PÃ¡gina-1" id="3YUEQ14AfohH6Qe3LJwl">
    <mxGraphModel dx="2093" dy="1045" grid="1" gridSize="10" guides="1" tooltips="1" connect="1" arrows="1" fold="1" page="1" pageScale="1" pageWidth="827" pageHeight="1169" math="0" shadow="0">
      <root>
        <mxCell id="0" />
        <mxCell id="1" parent="0" />
        <mxCell id="5pzZoGVCx7aaSOv3l4cf-11" style="edgeStyle=orthogonalEdgeStyle;rounded=0;orthogonalLoop=1;jettySize=auto;html=1;" edge="1" parent="1" source="5pzZoGVCx7aaSOv3l4cf-1" target="5pzZoGVCx7aaSOv3l4cf-2">
          <mxGeometry relative="1" as="geometry" />
        </mxCell>
        <mxCell id="5pzZoGVCx7aaSOv3l4cf-1" value="Inicio Act10T2" style="rounded=1;whiteSpace=wrap;html=1;" vertex="1" parent="1">
          <mxGeometry x="160" y="40" width="120" height="60" as="geometry" />
        </mxCell>
        <mxCell id="5pzZoGVCx7aaSOv3l4cf-12" style="edgeStyle=orthogonalEdgeStyle;rounded=0;orthogonalLoop=1;jettySize=auto;html=1;" edge="1" parent="1" source="5pzZoGVCx7aaSOv3l4cf-2" target="5pzZoGVCx7aaSOv3l4cf-3">
          <mxGeometry relative="1" as="geometry" />
        </mxCell>
        <mxCell id="5pzZoGVCx7aaSOv3l4cf-2" value="numero = numero al azar entre 1 y 10" style="rounded=0;whiteSpace=wrap;html=1;" vertex="1" parent="1">
          <mxGeometry x="160" y="130" width="120" height="60" as="geometry" />
        </mxCell>
        <mxCell id="5pzZoGVCx7aaSOv3l4cf-13" style="edgeStyle=orthogonalEdgeStyle;rounded=0;orthogonalLoop=1;jettySize=auto;html=1;entryX=0.5;entryY=0;entryDx=0;entryDy=0;" edge="1" parent="1" source="5pzZoGVCx7aaSOv3l4cf-20" target="5pzZoGVCx7aaSOv3l4cf-4">
          <mxGeometry relative="1" as="geometry" />
        </mxCell>
        <mxCell id="5pzZoGVCx7aaSOv3l4cf-3" value="Escribir&amp;nbsp;&lt;br&gt;&quot;Adivina un numero entre 1 y 10&quot;" style="shape=parallelogram;perimeter=parallelogramPerimeter;whiteSpace=wrap;html=1;fixedSize=1;" vertex="1" parent="1">
          <mxGeometry x="155" y="230" width="130" height="60" as="geometry" />
        </mxCell>
        <mxCell id="5pzZoGVCx7aaSOv3l4cf-14" style="edgeStyle=orthogonalEdgeStyle;rounded=0;orthogonalLoop=1;jettySize=auto;html=1;entryX=0;entryY=0.5;entryDx=0;entryDy=0;" edge="1" parent="1" source="5pzZoGVCx7aaSOv3l4cf-4" target="5pzZoGVCx7aaSOv3l4cf-8">
          <mxGeometry relative="1" as="geometry" />
        </mxCell>
        <mxCell id="5pzZoGVCx7aaSOv3l4cf-26" style="edgeStyle=orthogonalEdgeStyle;rounded=0;orthogonalLoop=1;jettySize=auto;html=1;entryX=0.5;entryY=0;entryDx=0;entryDy=0;" edge="1" parent="1" source="5pzZoGVCx7aaSOv3l4cf-4" target="5pzZoGVCx7aaSOv3l4cf-7">
          <mxGeometry relative="1" as="geometry" />
        </mxCell>
        <mxCell id="5pzZoGVCx7aaSOv3l4cf-4" value="numero = userNum?" style="rhombus;whiteSpace=wrap;html=1;" vertex="1" parent="1">
          <mxGeometry x="165" y="450" width="110" height="80" as="geometry" />
        </mxCell>
        <mxCell id="5pzZoGVCx7aaSOv3l4cf-6" value="Fin Act10T2" style="rounded=1;whiteSpace=wrap;html=1;" vertex="1" parent="1">
          <mxGeometry x="160" y="680" width="120" height="60" as="geometry" />
        </mxCell>
        <mxCell id="5pzZoGVCx7aaSOv3l4cf-27" style="edgeStyle=orthogonalEdgeStyle;rounded=0;orthogonalLoop=1;jettySize=auto;html=1;entryX=0.5;entryY=0;entryDx=0;entryDy=0;" edge="1" parent="1" source="5pzZoGVCx7aaSOv3l4cf-7" target="5pzZoGVCx7aaSOv3l4cf-6">
          <mxGeometry relative="1" as="geometry" />
        </mxCell>
        <mxCell id="5pzZoGVCx7aaSOv3l4cf-7" value="Escribir &quot;Has adivinido&quot;" style="shape=parallelogram;perimeter=parallelogramPerimeter;whiteSpace=wrap;html=1;fixedSize=1;" vertex="1" parent="1">
          <mxGeometry x="160" y="584" width="120" height="60" as="geometry" />
        </mxCell>
        <mxCell id="5pzZoGVCx7aaSOv3l4cf-22" style="edgeStyle=orthogonalEdgeStyle;rounded=0;orthogonalLoop=1;jettySize=auto;html=1;entryX=0.5;entryY=0;entryDx=0;entryDy=0;" edge="1" parent="1" source="5pzZoGVCx7aaSOv3l4cf-8" target="5pzZoGVCx7aaSOv3l4cf-10">
          <mxGeometry relative="1" as="geometry" />
        </mxCell>
        <mxCell id="5pzZoGVCx7aaSOv3l4cf-23" style="edgeStyle=orthogonalEdgeStyle;rounded=0;orthogonalLoop=1;jettySize=auto;html=1;entryX=0;entryY=0.5;entryDx=0;entryDy=0;" edge="1" parent="1" source="5pzZoGVCx7aaSOv3l4cf-8" target="5pzZoGVCx7aaSOv3l4cf-9">
          <mxGeometry relative="1" as="geometry" />
        </mxCell>
        <mxCell id="5pzZoGVCx7aaSOv3l4cf-8" value="numero &amp;lt; userNum?" style="rhombus;whiteSpace=wrap;html=1;" vertex="1" parent="1">
          <mxGeometry x="350" y="450" width="110" height="80" as="geometry" />
        </mxCell>
        <mxCell id="5pzZoGVCx7aaSOv3l4cf-25" style="edgeStyle=orthogonalEdgeStyle;rounded=0;orthogonalLoop=1;jettySize=auto;html=1;" edge="1" parent="1" source="5pzZoGVCx7aaSOv3l4cf-9">
          <mxGeometry relative="1" as="geometry">
            <mxPoint x="580" y="310" as="targetPoint" />
          </mxGeometry>
        </mxCell>
        <mxCell id="5pzZoGVCx7aaSOv3l4cf-9" value="Escribir &quot;Numero es mayor&quot;" style="shape=parallelogram;perimeter=parallelogramPerimeter;whiteSpace=wrap;html=1;fixedSize=1;" vertex="1" parent="1">
          <mxGeometry x="510" y="460" width="140" height="60" as="geometry" />
        </mxCell>
        <mxCell id="5pzZoGVCx7aaSOv3l4cf-24" style="edgeStyle=orthogonalEdgeStyle;rounded=0;orthogonalLoop=1;jettySize=auto;html=1;" edge="1" parent="1" source="5pzZoGVCx7aaSOv3l4cf-10">
          <mxGeometry relative="1" as="geometry">
            <mxPoint x="220" y="310" as="targetPoint" />
            <Array as="points">
              <mxPoint x="790" y="600" />
              <mxPoint x="790" y="310" />
            </Array>
          </mxGeometry>
        </mxCell>
        <mxCell id="5pzZoGVCx7aaSOv3l4cf-10" value="Escribir &quot;Numero es menor&quot;" style="shape=parallelogram;perimeter=parallelogramPerimeter;whiteSpace=wrap;html=1;fixedSize=1;" vertex="1" parent="1">
          <mxGeometry x="335" y="570" width="140" height="60" as="geometry" />
        </mxCell>
        <mxCell id="5pzZoGVCx7aaSOv3l4cf-21" value="" style="edgeStyle=orthogonalEdgeStyle;rounded=0;orthogonalLoop=1;jettySize=auto;html=1;entryX=0.5;entryY=0;entryDx=0;entryDy=0;" edge="1" parent="1" source="5pzZoGVCx7aaSOv3l4cf-3" target="5pzZoGVCx7aaSOv3l4cf-20">
          <mxGeometry relative="1" as="geometry">
            <mxPoint x="220" y="290" as="sourcePoint" />
            <mxPoint x="220" y="450" as="targetPoint" />
          </mxGeometry>
        </mxCell>
        <mxCell id="5pzZoGVCx7aaSOv3l4cf-20" value="Leer userNum" style="shape=parallelogram;perimeter=parallelogramPerimeter;whiteSpace=wrap;html=1;fixedSize=1;" vertex="1" parent="1">
          <mxGeometry x="160" y="340" width="120" height="60" as="geometry" />
        </mxCell>
        <mxCell id="5pzZoGVCx7aaSOv3l4cf-28" value="Si" style="text;html=1;strokeColor=none;fillColor=none;align=center;verticalAlign=middle;whiteSpace=wrap;rounded=0;" vertex="1" parent="1">
          <mxGeometry x="155" y="540" width="60" height="30" as="geometry" />
        </mxCell>
        <mxCell id="5pzZoGVCx7aaSOv3l4cf-29" value="Si" style="text;html=1;strokeColor=none;fillColor=none;align=center;verticalAlign=middle;whiteSpace=wrap;rounded=0;" vertex="1" parent="1">
          <mxGeometry x="400" y="530" width="60" height="30" as="geometry" />
        </mxCell>
        <mxCell id="5pzZoGVCx7aaSOv3l4cf-30" value="No" style="text;html=1;strokeColor=none;fillColor=none;align=center;verticalAlign=middle;whiteSpace=wrap;rounded=0;" vertex="1" parent="1">
          <mxGeometry x="280" y="460" width="60" height="30" as="geometry" />
        </mxCell>
        <mxCell id="5pzZoGVCx7aaSOv3l4cf-31" value="No" style="text;html=1;strokeColor=none;fillColor=none;align=center;verticalAlign=middle;whiteSpace=wrap;rounded=0;" vertex="1" parent="1">
          <mxGeometry x="460" y="460" width="60" height="30" as="geometry" />
        </mxCell>
      </root>
    </mxGraphModel>
  </diagram>
</mxfile>
